<mxfile host="65bd71144e">
    <diagram id="kPpI5b39ivMzIS_m8fnP" name="Page-1">
        <mxGraphModel dx="270" dy="616" grid="1" gridSize="10" guides="1" tooltips="1" connect="1" arrows="1" fold="1" page="1" pageScale="1" pageWidth="850" pageHeight="1100" math="0" shadow="0">
            <root>
                <mxCell id="0"/>
                <mxCell id="1" parent="0"/>
                <mxCell id="2" value="" style="whiteSpace=wrap;html=1;aspect=fixed;" vertex="1" parent="1">
                    <mxGeometry x="20" y="210" width="260" height="260" as="geometry"/>
                </mxCell>
                <mxCell id="3" value="" style="rounded=0;whiteSpace=wrap;html=1;" vertex="1" parent="1">
                    <mxGeometry x="20" y="210" width="260" height="40" as="geometry"/>
                </mxCell>
                <mxCell id="4" value="Footer" style="rounded=0;whiteSpace=wrap;html=1;" vertex="1" parent="1">
                    <mxGeometry x="20" y="440" width="250" height="30" as="geometry"/>
                </mxCell>
                <mxCell id="5" value="menu" style="rounded=1;whiteSpace=wrap;html=1;" vertex="1" parent="1">
                    <mxGeometry x="30" y="220" width="40" height="20" as="geometry"/>
                </mxCell>
                <mxCell id="6" value="title" style="rounded=1;whiteSpace=wrap;html=1;" vertex="1" parent="1">
                    <mxGeometry x="120" y="220" width="70" height="20" as="geometry"/>
                </mxCell>
                <mxCell id="7" value="cart" style="rounded=1;whiteSpace=wrap;html=1;" vertex="1" parent="1">
                    <mxGeometry x="250" y="220" width="20" height="20" as="geometry"/>
                </mxCell>
                <mxCell id="8" value="sign" style="rounded=1;whiteSpace=wrap;html=1;" vertex="1" parent="1">
                    <mxGeometry x="220" y="220" width="20" height="20" as="geometry"/>
                </mxCell>
                <mxCell id="10" value="serach bar" style="rounded=1;whiteSpace=wrap;html=1;" vertex="1" parent="1">
                    <mxGeometry x="55" y="260" width="190" height="10" as="geometry"/>
                </mxCell>
                <mxCell id="13" value="sales" style="rounded=1;whiteSpace=wrap;html=1;" vertex="1" parent="1">
                    <mxGeometry x="45" y="350" width="50" height="30" as="geometry"/>
                </mxCell>
                <mxCell id="16" value="sales" style="rounded=1;whiteSpace=wrap;html=1;" vertex="1" parent="1">
                    <mxGeometry x="45" y="400" width="50" height="30" as="geometry"/>
                </mxCell>
                <mxCell id="17" value="sales" style="rounded=1;whiteSpace=wrap;html=1;" vertex="1" parent="1">
                    <mxGeometry x="125" y="350" width="50" height="30" as="geometry"/>
                </mxCell>
                <mxCell id="18" value="sales" style="rounded=1;whiteSpace=wrap;html=1;" vertex="1" parent="1">
                    <mxGeometry x="125" y="400" width="50" height="30" as="geometry"/>
                </mxCell>
                <mxCell id="19" value="sales" style="rounded=1;whiteSpace=wrap;html=1;arcSize=0;" vertex="1" parent="1">
                    <mxGeometry x="200" y="350" width="50" height="30" as="geometry"/>
                </mxCell>
                <mxCell id="20" value="sales" style="rounded=1;whiteSpace=wrap;html=1;" vertex="1" parent="1">
                    <mxGeometry x="200" y="400" width="50" height="30" as="geometry"/>
                </mxCell>
                <mxCell id="21" value="design" style="ellipse;whiteSpace=wrap;html=1;" vertex="1" parent="1">
                    <mxGeometry x="40" y="280" width="60" height="50" as="geometry"/>
                </mxCell>
                <mxCell id="22" value="design" style="ellipse;whiteSpace=wrap;html=1;" vertex="1" parent="1">
                    <mxGeometry x="120" y="280" width="60" height="50" as="geometry"/>
                </mxCell>
                <mxCell id="23" value="design" style="ellipse;whiteSpace=wrap;html=1;" vertex="1" parent="1">
                    <mxGeometry x="200" y="280" width="60" height="50" as="geometry"/>
                </mxCell>
            </root>
        </mxGraphModel>
    </diagram>
</mxfile>